# xmcd CD database file
#
# Track frame offsets:
#	150
#	11281
#	65061
#	115420
#	144868
#	173101
#	209504
#	236254
#	269869
#	284117
#	304130
#
# Disc length: 4336 seconds
#
# Revision: 2
# Processed by: cddbd v1.5.2PL0 Copyright (c) Steve Scherf et al.
# Submitted via: CDex 1.70beta2
#
DISCID=a810ee0b
DTITLE=aka blas - 35 Jahre!
DYEAR=1999
DGENRE=Jazz
TTITLE0=Big Spender
TTITLE1=Walt Disney Pictures
TTITLE2=Western Train
TTITLE3=Abba Gold
TTITLE4=Persischer Markt
TTITLE5=Choral and Rock-Out
TTITLE6=Blues Brothers in Concert
TTITLE7=Cream of Eric Clapton
TTITLE8=Instant Concert
TTITLE9=Lila 6 und 6
TTITLE10=Brikett-Polka
EXTD=YEAR: 1999
EXTT0=
EXTT1=
EXTT2=
EXTT3=
EXTT4=
EXTT5=
EXTT6=
EXTT7=
EXTT8=
EXTT9=
EXTT10=
PLAYORDER=
